<svg xmlns="http://www.w3.org/2000/svg" viewBox="0 0 64 64">
  <defs>
    <linearGradient id="g" x1="0" y1="0" x2="1" y2="1">
      <stop offset="0%" stop-color="#ffe66d"/>
      <stop offset="55%" stop-color="#f3c544"/>
      <stop offset="100%" stop-color="#d79a1c"/>
    </linearGradient>
  </defs>
  <rect width="64" height="64" rx="14" fill="#143a2b"/>
  <path d="M33 8c7 9 13 16 13 25 0 9-6 16-14 16S18 42 18 33c0-7 5-13 15-25z" fill="url(#g)"/>
  <path d="M29 19c-5 6-8 11-8 16 0 7 5 12 11 12 4 0 8-2 10-6-4 1-8 0-11-3-4-4-4-12-2-19z" fill="#fff59d" opacity="0.35"/>
  <circle cx="31" cy="33" r="4.5" fill="#143a2b" opacity="0.18"/>
</svg>
