<svg xmlns="http://www.w3.org/2000/svg" viewBox="0 0 64 64">
  <defs>
    <linearGradient id="bg" x1="0" y1="0" x2="1" y2="1">
      <stop offset="0%" stop-color="#26356f"/>
      <stop offset="100%" stop-color="#0f1739"/>
    </linearGradient>
    <linearGradient id="glass" x1="0" y1="0" x2="0" y2="1">
      <stop offset="0%" stop-color="#52b8f3"/>
      <stop offset="100%" stop-color="#1f6eb8"/>
    </linearGradient>
  </defs>
  <rect width="64" height="64" rx="14" fill="url(#bg)"/>
  <rect x="27" y="8" width="10" height="8" rx="3" fill="#0b0b0d"/>
  <rect x="23" y="14" width="18" height="10" rx="4" fill="#17181c"/>
  <rect x="22" y="22" width="20" height="29" rx="8" fill="#7d341b"/>
  <rect x="21" y="28" width="22" height="14" rx="2" fill="url(#glass)" opacity="0.92"/>
  <path d="M12 43c7-11 14-14 21-14-8 6-12 12-13 19-3-1-5-3-8-5z" fill="#72c94c"/>
  <circle cx="48" cy="44" r="8" fill="#d9475f"/>
  <path d="M48 36c2 4 6 7 10 8-4 1-8 4-10 8-2-4-6-7-10-8 4-1 8-4 10-8z" fill="#f5e6d8" opacity="0.7"/>
</svg>
